<svg xmlns="http://www.w3.org/2000/svg" width="188.33" height="52.31" viewBox="0 0 188.33 52.31"><g id="Layer_2" data-name="Layer 2"><g id="Layer_1-2" data-name="Layer 1"><path d="M0,35.22H7.19c5.07,0,8.83,2.89,8.83,8s-3.76,8.06-8.81,8.06H0ZM7.19,47.06a3.71,3.71,0,0,0,3.88-3.81,3.52,3.52,0,0,0-3.86-3.79H4.87v7.6Z"/><path d="M17.76,35.22H30v4.05H22.64v1.88H29.8V45.2H22.64v2H30v4.06H17.76Z"/><path d="M31.28,43.27c0-5,3.81-8.32,8.73-8.32a7.56,7.56,0,0,1,7.43,4.68l-4.2,1.95A3.45,3.45,0,0,0,40,39.24a4,4,0,0,0,0,8.06A3.43,3.43,0,0,0,43.24,45l4.2,1.93A7.65,7.65,0,0,1,40,51.6C35.09,51.6,31.28,48.22,31.28,43.27Z"/><path d="M56.9,35c5,0,8.81,3.38,8.81,8.32S61.87,51.6,56.9,51.6s-8.8-3.38-8.8-8.33S51.93,35,56.9,35Zm0,4.29a3.81,3.81,0,0,0-3.86,4,3.86,3.86,0,1,0,7.72,0A3.81,3.81,0,0,0,56.9,39.24Z"/><path d="M74.08,46.14H72.32v5.17H67.45V35.22H76c3.76,0,5.79,2.5,5.79,5.52a5.17,5.17,0,0,1-2.9,4.87l2.92,5.7H76.3Zm1.21-6.87h-3v2.82h3a1.42,1.42,0,1,0,0-2.82Z"/><path d="M83.81,35.22h4.87V51.31H83.81Z"/><path d="M92.59,45.42a7.51,7.51,0,0,0,5.19,2.08c.92,0,1.79-.32,1.79-.94s-.68-1-2.27-1.24c-2.65-.48-6.71-1.11-6.71-5.13,0-2.73,2.27-5.22,6.69-5.22a10.57,10.57,0,0,1,6.82,2.25l-2.6,3.45A8,8,0,0,0,97,39.08c-1.21,0-1.47.43-1.47.84,0,.63.65.84,2.36,1.13,2.66.46,6.59,1.23,6.59,5,0,3.55-2.63,5.6-6.95,5.6A10.61,10.61,0,0,1,90.06,49Z"/><path d="M109.53,39.46h-4.31V35.22H118.7v4.24h-4.29V51.31h-4.88Z"/><path d="M.07,25.12H5.79V26H1.15v2.47H5.7v.85H1.15v2.64H5.79v.85H.07Z" fill="#999"/><path d="M6.62,25.12H7.86l3,6.62,2.95-6.62H15l-3.52,7.66H10.13Z" fill="#999"/><path d="M16.14,25.12h5.73V26H17.23v2.47h4.54v.85H17.23v2.64h4.64v.85H16.14Z" fill="#999"/><path d="M26.43,29.74H24.68v3H23.6V25.12h3.51c1.59,0,2.73.9,2.73,2.31a2.24,2.24,0,0,1-2.26,2.23l2.36,3.12H28.65ZM27,26H24.68V28.9H27A1.49,1.49,0,1,0,27,26Z" fill="#999"/><path d="M33.89,29.54l-3.44-4.42h1.27l2.71,3.56,2.71-3.56h1.27L35,29.54v3.24H33.89Z" fill="#999"/><path d="M41.71,26H39v-.85h6.63V26H42.8v6.81H41.71Z" fill="#999"/><path d="M53.21,29.27h-5.1v3.51H47V25.12h1.09v3.3h5.1v-3.3H54.3v7.66H53.21Z" fill="#999"/><path d="M56.35,25.12h1.08v7.66H56.35Z" fill="#999"/><path d="M60.56,26.6v6.18H59.48V25.12h1.11l5,6.05V25.12h1.09v7.66h-1Z" fill="#999"/><path d="M72.89,25a4.37,4.37,0,0,1,3.39,1.44l-.86.47a3.41,3.41,0,0,0-2.53-1.06,3.13,3.13,0,1,0,0,6.24,3.73,3.73,0,0,0,2.35-.83V29.69h-3v-.85h4.08v2.77a4.85,4.85,0,0,1-3.43,1.32c-2.49,0-4.49-1.6-4.49-4S70.4,25,72.89,25Z" fill="#999"/><path d="M87.67,29.27H82.56v3.51H81.47V25.12h1.09v3.3h5.11v-3.3h1.09v7.66H87.67Z" fill="#999"/><path d="M94.78,25a4,4,0,1,1-4.33,4A4,4,0,0,1,94.78,25Zm0,.85A3.12,3.12,0,1,0,98,29,3,3,0,0,0,94.78,25.84Z" fill="#999"/><path d="M108.29,26.41l-3,6.37h-.44l-3-6.37v6.37h-1.09V25.12h1.56L105.09,31l2.73-5.83h1.55v7.66h-1.08Z" fill="#999"/><path d="M111.42,25.12h5.72V26h-4.63v2.47h4.54v.85h-4.54v2.64h4.63v.85h-5.72Z" fill="#999"/><polygon points="0 0 0 17.75 3.45 17.75 3.45 3.45 184.88 3.45 184.88 48.86 123.91 48.86 123.91 52.31 188.32 52.31 188.32 0 0 0" fill="#ea2c2c"/></g></g></svg>