<svg xmlns="http://www.w3.org/2000/svg" width="200" height="14.87" viewBox="0 0 200 14.87">
  <g id="Layer_2" data-name="Layer 2">
    <g id="Layer_1-2" data-name="Layer 1">
      <g>
        <g>
          <path d="M25,13.77a6.87,6.87,0,0,1-2.77-2.57,7.12,7.12,0,0,1-1-3.76,7.1,7.1,0,0,1,1-3.76A6.9,6.9,0,0,1,25,1.1a8.47,8.47,0,0,1,4-.92,8.78,8.78,0,0,1,3.61.71A6.82,6.82,0,0,1,35.21,3l-3,2.64a3.8,3.8,0,0,0-3-1.62,3.1,3.1,0,0,0-2.36.94A3.55,3.55,0,0,0,26,7.44,3.57,3.57,0,0,0,26.86,10a3.13,3.13,0,0,0,2.36.94,3.78,3.78,0,0,0,3-1.63l3,2.64A6.64,6.64,0,0,1,32.59,14,8.62,8.62,0,0,1,29,14.7,8.35,8.35,0,0,1,25,13.77Z" fill="#173052"/>
          <path d="M39.52,13.76a7,7,0,0,1-2.8-2.58,7.08,7.08,0,0,1-1-3.74,7.06,7.06,0,0,1,1-3.74,6.94,6.94,0,0,1,2.8-2.59,9.18,9.18,0,0,1,8,0,7,7,0,0,1,3.81,6.33,7,7,0,0,1-3.81,6.32,9.09,9.09,0,0,1-8,0Zm5.6-3.28a3.05,3.05,0,0,0,1.12-1.21,3.8,3.8,0,0,0,.42-1.83,3.87,3.87,0,0,0-.42-1.84,3.12,3.12,0,0,0-1.12-1.21A3,3,0,0,0,43.54,4,3,3,0,0,0,42,4.39,3,3,0,0,0,40.85,5.6a3.87,3.87,0,0,0-.42,1.84,3.8,3.8,0,0,0,.42,1.83A3,3,0,0,0,42,10.48a2.89,2.89,0,0,0,1.57.43A3,3,0,0,0,45.12,10.48Z" fill="#173052"/>
          <path d="M66.77.5V14.38H62.92L57.64,8.07v6.31H53.08V.5h3.85L62.2,6.8V.5Z" fill="#173052"/>
          <path d="M83.86.5,78,14.38h-4.6L67.52.5h5l3.31,8.11L79.26.5Z" fill="#173052"/>
          <path d="M95.86,10.85v3.53H84.32V.5H95.6V4H88.92V5.65h5.87V9H88.92v1.83Z" fill="#173052"/>
          <path d="M103.61,10.89h-1.26v3.49H97.66V.5h6.69a8.24,8.24,0,0,1,3.35.63A4.91,4.91,0,0,1,109.9,3a5,5,0,0,1,.77,2.78,4.91,4.91,0,0,1-.67,2.6,4.83,4.83,0,0,1-1.94,1.77L111,14.38h-5Zm1.87-6.36a2.11,2.11,0,0,0-1.43-.42h-1.7V7.36h1.7a2.06,2.06,0,0,0,1.43-.43,1.5,1.5,0,0,0,.47-1.2A1.53,1.53,0,0,0,105.48,4.53Z" fill="#173052"/>
          <path d="M115.26,4.12h-4.07V.5H124V4.12h-4.06V14.38h-4.68Z" fill="#173052"/>
          <path d="M135.11,7.22H138v5.63a8.21,8.21,0,0,1-2.61,1.31,10.36,10.36,0,0,1-3,.46,8.07,8.07,0,0,1-3.89-.93,6.77,6.77,0,0,1-2.7-2.55,7,7,0,0,1-1-3.7,7,7,0,0,1,1-3.7,6.85,6.85,0,0,1,2.72-2.56,8.37,8.37,0,0,1,3.93-.92,8.56,8.56,0,0,1,3.31.61,6.56,6.56,0,0,1,2.5,1.79l-2.06,1.9A4.79,4.79,0,0,0,132.65,3a4.9,4.9,0,0,0-2.36.56,4,4,0,0,0-1.61,1.57,4.61,4.61,0,0,0-.57,2.32,4.62,4.62,0,0,0,.57,2.3,4.09,4.09,0,0,0,1.6,1.57,4.7,4.7,0,0,0,2.33.57,5.19,5.19,0,0,0,2.5-.6Z" fill="#e3002a"/>
          <path d="M149.86,14.38l-2.67-3.87h-3v3.87H141V.5h6a7.71,7.71,0,0,1,3.2.61,4.7,4.7,0,0,1,2.09,1.75,4.77,4.77,0,0,1,.74,2.67,4.7,4.7,0,0,1-.75,2.67,4.7,4.7,0,0,1-2.11,1.72l3.11,4.46Zm-.81-10.64a3.36,3.36,0,0,0-2.2-.63h-2.62V8h2.62a3.36,3.36,0,0,0,2.2-.63,2.21,2.21,0,0,0,.75-1.79A2.19,2.19,0,0,0,149.05,3.74Z" fill="#e3002a"/>
          <path d="M158.42,13.68a6.92,6.92,0,0,1-2.72-2.56,7.06,7.06,0,0,1-1-3.68,7.06,7.06,0,0,1,1-3.68,6.94,6.94,0,0,1,2.72-2.57,8.62,8.62,0,0,1,7.79,0,7,7,0,0,1,3.7,6.25,6.93,6.93,0,0,1-3.7,6.24,8,8,0,0,1-3.89.94A8,8,0,0,1,158.42,13.68Zm6.12-2.37a4.06,4.06,0,0,0,1.56-1.57,4.72,4.72,0,0,0,.56-2.3,4.69,4.69,0,0,0-.56-2.3,4.08,4.08,0,0,0-1.56-1.58,4.61,4.61,0,0,0-4.44,0,4.08,4.08,0,0,0-1.56,1.58,4.58,4.58,0,0,0-.56,2.3,4.61,4.61,0,0,0,.56,2.3,4.06,4.06,0,0,0,1.56,1.57,4.61,4.61,0,0,0,4.44,0Z" fill="#e3002a"/>
          <path d="M173.87,13a6.35,6.35,0,0,1-1.66-4.7V.5h3.22V8.15q0,3.74,3.09,3.73a2.9,2.9,0,0,0,2.3-.9,4.21,4.21,0,0,0,.8-2.83V.5h3.17V8.27a6.31,6.31,0,0,1-1.66,4.7,7.32,7.32,0,0,1-9.26,0Z" fill="#e3002a"/>
          <path d="M197.17,1.11a4.73,4.73,0,0,1,2.1,1.75A4.77,4.77,0,0,1,200,5.53a4.82,4.82,0,0,1-.73,2.67,4.73,4.73,0,0,1-2.1,1.75,7.84,7.84,0,0,1-3.2.6h-2.8v3.83H188V.5h6A7.68,7.68,0,0,1,197.17,1.11ZM196,7.31a2.17,2.17,0,0,0,.76-1.78A2.16,2.16,0,0,0,196,3.74a3.34,3.34,0,0,0-2.2-.63h-2.62V7.93h2.62A3.39,3.39,0,0,0,196,7.31Z" fill="#e3002a"/>
        </g>
        <circle cx="7.44" cy="7.44" r="7.44" fill="#e3002a"/>
      </g>
    </g>
  </g>
</svg>
